<mxfile host="Electron" modified="2024-11-15T12:23:19.735Z" agent="Mozilla/5.0 (Windows NT 10.0; Win64; x64) AppleWebKit/537.36 (KHTML, like Gecko) draw.io/23.0.2 Chrome/120.0.6099.109 Electron/28.1.0 Safari/537.36" etag="MlSi9kc1KpElDjFQYL08" version="23.0.2" type="device" pages="4">
  <diagram name="single-cell" id="BlH4AGJkGXQGmAx4KE1v">
    <mxGraphModel dx="1655" dy="1131" grid="1" gridSize="10" guides="1" tooltips="1" connect="1" arrows="1" fold="1" page="1" pageScale="1" pageWidth="3300" pageHeight="2339" math="1" shadow="0">
      <root>
        <mxCell id="0" />
        <mxCell id="1" parent="0" />
        <mxCell id="gqW_zt_hQoUjc86rOhtZ-10" style="edgeStyle=orthogonalEdgeStyle;rounded=0;orthogonalLoop=1;jettySize=auto;html=1;exitX=1;exitY=0.5;exitDx=0;exitDy=0;entryX=0.5;entryY=0;entryDx=0;entryDy=0;endArrow=none;endFill=0;" edge="1" parent="1" source="gqW_zt_hQoUjc86rOhtZ-1" target="gqW_zt_hQoUjc86rOhtZ-4">
          <mxGeometry relative="1" as="geometry" />
        </mxCell>
        <mxCell id="gqW_zt_hQoUjc86rOhtZ-1" value="" style="rounded=0;whiteSpace=wrap;html=1;" vertex="1" parent="1">
          <mxGeometry x="190" y="100" width="120" height="60" as="geometry" />
        </mxCell>
        <mxCell id="gqW_zt_hQoUjc86rOhtZ-9" style="edgeStyle=orthogonalEdgeStyle;rounded=0;orthogonalLoop=1;jettySize=auto;html=1;exitX=0;exitY=0.5;exitDx=0;exitDy=0;entryX=0;entryY=0.5;entryDx=0;entryDy=0;endArrow=none;endFill=0;" edge="1" parent="1" source="gqW_zt_hQoUjc86rOhtZ-2" target="gqW_zt_hQoUjc86rOhtZ-3">
          <mxGeometry relative="1" as="geometry">
            <Array as="points">
              <mxPoint x="120" y="130" />
              <mxPoint x="120" y="230" />
            </Array>
          </mxGeometry>
        </mxCell>
        <mxCell id="gqW_zt_hQoUjc86rOhtZ-2" value="" style="triangle;whiteSpace=wrap;html=1;" vertex="1" parent="1">
          <mxGeometry x="190" y="100" width="45" height="60" as="geometry" />
        </mxCell>
        <mxCell id="gqW_zt_hQoUjc86rOhtZ-5" style="edgeStyle=orthogonalEdgeStyle;rounded=0;orthogonalLoop=1;jettySize=auto;html=1;exitX=1;exitY=0.5;exitDx=0;exitDy=0;entryX=0.5;entryY=0;entryDx=0;entryDy=0;endArrow=none;endFill=0;" edge="1" parent="1" source="gqW_zt_hQoUjc86rOhtZ-3" target="gqW_zt_hQoUjc86rOhtZ-4">
          <mxGeometry relative="1" as="geometry" />
        </mxCell>
        <mxCell id="gqW_zt_hQoUjc86rOhtZ-3" value="V" style="verticalLabelPosition=middle;shadow=0;dashed=0;align=center;html=1;verticalAlign=middle;strokeWidth=1;shape=ellipse;aspect=fixed;fontSize=50;" vertex="1" parent="1">
          <mxGeometry x="205" y="185" width="90" height="90" as="geometry" />
        </mxCell>
        <mxCell id="gqW_zt_hQoUjc86rOhtZ-4" value="A" style="verticalLabelPosition=middle;shadow=0;dashed=0;align=center;html=1;verticalAlign=middle;strokeWidth=1;shape=ellipse;aspect=fixed;fontSize=50;" vertex="1" parent="1">
          <mxGeometry x="320" y="275" width="90" height="90" as="geometry" />
        </mxCell>
        <mxCell id="gqW_zt_hQoUjc86rOhtZ-7" style="edgeStyle=orthogonalEdgeStyle;rounded=0;orthogonalLoop=1;jettySize=auto;html=1;exitX=1;exitY=0.5;exitDx=0;exitDy=0;exitPerimeter=0;entryX=0.5;entryY=1;entryDx=0;entryDy=0;endArrow=none;endFill=0;" edge="1" parent="1" source="gqW_zt_hQoUjc86rOhtZ-6" target="gqW_zt_hQoUjc86rOhtZ-4">
          <mxGeometry relative="1" as="geometry" />
        </mxCell>
        <mxCell id="gqW_zt_hQoUjc86rOhtZ-8" style="edgeStyle=orthogonalEdgeStyle;rounded=0;orthogonalLoop=1;jettySize=auto;html=1;exitX=0;exitY=0.5;exitDx=0;exitDy=0;exitPerimeter=0;entryX=0;entryY=0.5;entryDx=0;entryDy=0;endArrow=none;endFill=0;" edge="1" parent="1" source="gqW_zt_hQoUjc86rOhtZ-6" target="gqW_zt_hQoUjc86rOhtZ-3">
          <mxGeometry relative="1" as="geometry">
            <mxPoint x="120" y="270" as="targetPoint" />
            <Array as="points">
              <mxPoint x="120" y="410" />
              <mxPoint x="120" y="230" />
            </Array>
          </mxGeometry>
        </mxCell>
        <mxCell id="gqW_zt_hQoUjc86rOhtZ-6" value="" style="pointerEvents=1;verticalLabelPosition=bottom;shadow=0;dashed=0;align=center;html=1;verticalAlign=top;shape=mxgraph.electrical.resistors.resistor_1;" vertex="1" parent="1">
          <mxGeometry x="195" y="400" width="100" height="20" as="geometry" />
        </mxCell>
        <mxCell id="gqW_zt_hQoUjc86rOhtZ-11" value="\(PV_1\)" style="text;html=1;strokeColor=none;fillColor=none;align=center;verticalAlign=middle;whiteSpace=wrap;rounded=0;fontSize=18;" vertex="1" parent="1">
          <mxGeometry x="235" y="115" width="60" height="30" as="geometry" />
        </mxCell>
        <mxCell id="gqW_zt_hQoUjc86rOhtZ-12" value="&lt;blockquote style=&quot;margin: 0 0 0 40px; border: none; padding: 0px;&quot;&gt;&lt;br&gt;&lt;/blockquote&gt;" style="text;html=1;strokeColor=none;fillColor=none;align=center;verticalAlign=middle;whiteSpace=wrap;rounded=0;fontSize=18;" vertex="1" parent="1">
          <mxGeometry x="215" y="420" width="60" height="30" as="geometry" />
        </mxCell>
        <mxCell id="gqW_zt_hQoUjc86rOhtZ-13" value="\(R_{LOAD}\)" style="text;html=1;strokeColor=none;fillColor=none;align=center;verticalAlign=middle;whiteSpace=wrap;rounded=0;fontSize=18;" vertex="1" parent="1">
          <mxGeometry x="220" y="430" width="60" height="30" as="geometry" />
        </mxCell>
        <mxCell id="gqW_zt_hQoUjc86rOhtZ-14" value="Voltmeter" style="text;html=1;strokeColor=none;fillColor=none;align=center;verticalAlign=middle;whiteSpace=wrap;rounded=0;" vertex="1" parent="1">
          <mxGeometry x="220" y="280" width="60" height="30" as="geometry" />
        </mxCell>
        <mxCell id="gqW_zt_hQoUjc86rOhtZ-15" value="Ammeter&amp;nbsp;" style="text;html=1;strokeColor=none;fillColor=none;align=center;verticalAlign=middle;whiteSpace=wrap;rounded=0;" vertex="1" parent="1">
          <mxGeometry x="420" y="305" width="60" height="30" as="geometry" />
        </mxCell>
        <mxCell id="gqW_zt_hQoUjc86rOhtZ-16" value="1" style="ellipse;whiteSpace=wrap;html=1;aspect=fixed;fontSize=28;fontStyle=1;fillColor=#f5f5f5;fontColor=#333333;strokeColor=#666666;" vertex="1" parent="1">
          <mxGeometry x="40" y="40" width="50" height="50" as="geometry" />
        </mxCell>
        <mxCell id="gqW_zt_hQoUjc86rOhtZ-18" style="edgeStyle=orthogonalEdgeStyle;rounded=0;orthogonalLoop=1;jettySize=auto;html=1;exitX=0.5;exitY=0;exitDx=0;exitDy=0;exitPerimeter=0;entryX=1;entryY=0.5;entryDx=0;entryDy=0;endArrow=none;endFill=0;" edge="1" parent="1" source="gqW_zt_hQoUjc86rOhtZ-17" target="gqW_zt_hQoUjc86rOhtZ-1">
          <mxGeometry relative="1" as="geometry" />
        </mxCell>
        <mxCell id="gqW_zt_hQoUjc86rOhtZ-17" value="" style="pointerEvents=1;verticalLabelPosition=bottom;shadow=0;dashed=0;align=center;html=1;verticalAlign=top;shape=mxgraph.electrical.signal_sources.signal_ground;" vertex="1" parent="1">
          <mxGeometry x="400" y="155" width="45" height="30" as="geometry" />
        </mxCell>
        <mxCell id="gqW_zt_hQoUjc86rOhtZ-20" style="edgeStyle=orthogonalEdgeStyle;rounded=0;orthogonalLoop=1;jettySize=auto;html=1;exitX=1;exitY=0.5;exitDx=0;exitDy=0;entryX=0.5;entryY=0;entryDx=0;entryDy=0;endArrow=none;endFill=0;" edge="1" parent="1" source="gqW_zt_hQoUjc86rOhtZ-21" target="gqW_zt_hQoUjc86rOhtZ-26">
          <mxGeometry relative="1" as="geometry" />
        </mxCell>
        <mxCell id="gqW_zt_hQoUjc86rOhtZ-21" value="" style="rounded=0;whiteSpace=wrap;html=1;" vertex="1" parent="1">
          <mxGeometry x="710" y="100" width="120" height="60" as="geometry" />
        </mxCell>
        <mxCell id="gqW_zt_hQoUjc86rOhtZ-22" style="edgeStyle=orthogonalEdgeStyle;rounded=0;orthogonalLoop=1;jettySize=auto;html=1;exitX=0;exitY=0.5;exitDx=0;exitDy=0;entryX=0;entryY=0.5;entryDx=0;entryDy=0;endArrow=none;endFill=0;" edge="1" parent="1" source="gqW_zt_hQoUjc86rOhtZ-23" target="gqW_zt_hQoUjc86rOhtZ-25">
          <mxGeometry relative="1" as="geometry">
            <Array as="points">
              <mxPoint x="640" y="130" />
              <mxPoint x="640" y="230" />
            </Array>
          </mxGeometry>
        </mxCell>
        <mxCell id="gqW_zt_hQoUjc86rOhtZ-23" value="" style="triangle;whiteSpace=wrap;html=1;" vertex="1" parent="1">
          <mxGeometry x="710" y="100" width="45" height="60" as="geometry" />
        </mxCell>
        <mxCell id="gqW_zt_hQoUjc86rOhtZ-24" style="edgeStyle=orthogonalEdgeStyle;rounded=0;orthogonalLoop=1;jettySize=auto;html=1;exitX=1;exitY=0.5;exitDx=0;exitDy=0;entryX=0.5;entryY=0;entryDx=0;entryDy=0;endArrow=none;endFill=0;" edge="1" parent="1" source="gqW_zt_hQoUjc86rOhtZ-25" target="gqW_zt_hQoUjc86rOhtZ-26">
          <mxGeometry relative="1" as="geometry" />
        </mxCell>
        <mxCell id="gqW_zt_hQoUjc86rOhtZ-25" value="V" style="verticalLabelPosition=middle;shadow=0;dashed=0;align=center;html=1;verticalAlign=middle;strokeWidth=1;shape=ellipse;aspect=fixed;fontSize=50;" vertex="1" parent="1">
          <mxGeometry x="725" y="185" width="90" height="90" as="geometry" />
        </mxCell>
        <mxCell id="gqW_zt_hQoUjc86rOhtZ-26" value="A" style="verticalLabelPosition=middle;shadow=0;dashed=0;align=center;html=1;verticalAlign=middle;strokeWidth=1;shape=ellipse;aspect=fixed;fontSize=50;" vertex="1" parent="1">
          <mxGeometry x="840" y="275" width="90" height="90" as="geometry" />
        </mxCell>
        <mxCell id="gqW_zt_hQoUjc86rOhtZ-27" style="edgeStyle=orthogonalEdgeStyle;rounded=0;orthogonalLoop=1;jettySize=auto;html=1;exitX=1;exitY=0.5;exitDx=0;exitDy=0;exitPerimeter=0;entryX=0.5;entryY=1;entryDx=0;entryDy=0;endArrow=none;endFill=0;" edge="1" parent="1" target="gqW_zt_hQoUjc86rOhtZ-26">
          <mxGeometry relative="1" as="geometry">
            <mxPoint x="815" y="410" as="sourcePoint" />
          </mxGeometry>
        </mxCell>
        <mxCell id="gqW_zt_hQoUjc86rOhtZ-28" style="edgeStyle=orthogonalEdgeStyle;rounded=0;orthogonalLoop=1;jettySize=auto;html=1;exitX=0;exitY=0.5;exitDx=0;exitDy=0;exitPerimeter=0;entryX=0;entryY=0.5;entryDx=0;entryDy=0;endArrow=none;endFill=0;" edge="1" parent="1" target="gqW_zt_hQoUjc86rOhtZ-25">
          <mxGeometry relative="1" as="geometry">
            <mxPoint x="640" y="270" as="targetPoint" />
            <Array as="points">
              <mxPoint x="640" y="410" />
              <mxPoint x="640" y="230" />
            </Array>
            <mxPoint x="714.9999999999998" y="410" as="sourcePoint" />
          </mxGeometry>
        </mxCell>
        <mxCell id="gqW_zt_hQoUjc86rOhtZ-30" value="\(PV_1\)" style="text;html=1;strokeColor=none;fillColor=none;align=center;verticalAlign=middle;whiteSpace=wrap;rounded=0;fontSize=18;" vertex="1" parent="1">
          <mxGeometry x="755" y="115" width="60" height="30" as="geometry" />
        </mxCell>
        <mxCell id="gqW_zt_hQoUjc86rOhtZ-31" value="&lt;blockquote style=&quot;margin: 0 0 0 40px; border: none; padding: 0px;&quot;&gt;&lt;br&gt;&lt;/blockquote&gt;" style="text;html=1;strokeColor=none;fillColor=none;align=center;verticalAlign=middle;whiteSpace=wrap;rounded=0;fontSize=18;" vertex="1" parent="1">
          <mxGeometry x="735" y="420" width="60" height="30" as="geometry" />
        </mxCell>
        <mxCell id="gqW_zt_hQoUjc86rOhtZ-32" value="Open circuit" style="text;html=1;strokeColor=none;fillColor=none;align=center;verticalAlign=middle;whiteSpace=wrap;rounded=0;fontSize=18;" vertex="1" parent="1">
          <mxGeometry x="740" y="430" width="60" height="30" as="geometry" />
        </mxCell>
        <mxCell id="gqW_zt_hQoUjc86rOhtZ-33" value="Voltmeter" style="text;html=1;strokeColor=none;fillColor=none;align=center;verticalAlign=middle;whiteSpace=wrap;rounded=0;" vertex="1" parent="1">
          <mxGeometry x="740" y="280" width="60" height="30" as="geometry" />
        </mxCell>
        <mxCell id="gqW_zt_hQoUjc86rOhtZ-34" value="Ammeter&amp;nbsp;" style="text;html=1;strokeColor=none;fillColor=none;align=center;verticalAlign=middle;whiteSpace=wrap;rounded=0;" vertex="1" parent="1">
          <mxGeometry x="940" y="305" width="60" height="30" as="geometry" />
        </mxCell>
        <mxCell id="gqW_zt_hQoUjc86rOhtZ-35" value="2" style="ellipse;whiteSpace=wrap;html=1;aspect=fixed;fontSize=28;fontStyle=1;fillColor=#f5f5f5;fontColor=#333333;strokeColor=#666666;" vertex="1" parent="1">
          <mxGeometry x="560" y="40" width="50" height="50" as="geometry" />
        </mxCell>
        <mxCell id="gqW_zt_hQoUjc86rOhtZ-36" style="edgeStyle=orthogonalEdgeStyle;rounded=0;orthogonalLoop=1;jettySize=auto;html=1;exitX=0.5;exitY=0;exitDx=0;exitDy=0;exitPerimeter=0;entryX=1;entryY=0.5;entryDx=0;entryDy=0;endArrow=none;endFill=0;" edge="1" parent="1" source="gqW_zt_hQoUjc86rOhtZ-37" target="gqW_zt_hQoUjc86rOhtZ-21">
          <mxGeometry relative="1" as="geometry" />
        </mxCell>
        <mxCell id="gqW_zt_hQoUjc86rOhtZ-37" value="" style="pointerEvents=1;verticalLabelPosition=bottom;shadow=0;dashed=0;align=center;html=1;verticalAlign=top;shape=mxgraph.electrical.signal_sources.signal_ground;" vertex="1" parent="1">
          <mxGeometry x="920" y="155" width="45" height="30" as="geometry" />
        </mxCell>
        <mxCell id="gqW_zt_hQoUjc86rOhtZ-38" style="edgeStyle=orthogonalEdgeStyle;rounded=0;orthogonalLoop=1;jettySize=auto;html=1;exitX=1;exitY=0.5;exitDx=0;exitDy=0;entryX=0.5;entryY=0;entryDx=0;entryDy=0;endArrow=none;endFill=0;" edge="1" parent="1" source="gqW_zt_hQoUjc86rOhtZ-39" target="gqW_zt_hQoUjc86rOhtZ-44">
          <mxGeometry relative="1" as="geometry" />
        </mxCell>
        <mxCell id="gqW_zt_hQoUjc86rOhtZ-39" value="" style="rounded=0;whiteSpace=wrap;html=1;" vertex="1" parent="1">
          <mxGeometry x="1230" y="100" width="120" height="60" as="geometry" />
        </mxCell>
        <mxCell id="gqW_zt_hQoUjc86rOhtZ-40" style="edgeStyle=orthogonalEdgeStyle;rounded=0;orthogonalLoop=1;jettySize=auto;html=1;exitX=0;exitY=0.5;exitDx=0;exitDy=0;entryX=0;entryY=0.5;entryDx=0;entryDy=0;endArrow=none;endFill=0;" edge="1" parent="1" source="gqW_zt_hQoUjc86rOhtZ-41" target="gqW_zt_hQoUjc86rOhtZ-43">
          <mxGeometry relative="1" as="geometry">
            <Array as="points">
              <mxPoint x="1160" y="130" />
              <mxPoint x="1160" y="230" />
            </Array>
          </mxGeometry>
        </mxCell>
        <mxCell id="gqW_zt_hQoUjc86rOhtZ-41" value="" style="triangle;whiteSpace=wrap;html=1;" vertex="1" parent="1">
          <mxGeometry x="1230" y="100" width="45" height="60" as="geometry" />
        </mxCell>
        <mxCell id="gqW_zt_hQoUjc86rOhtZ-42" style="edgeStyle=orthogonalEdgeStyle;rounded=0;orthogonalLoop=1;jettySize=auto;html=1;exitX=1;exitY=0.5;exitDx=0;exitDy=0;entryX=0.5;entryY=0;entryDx=0;entryDy=0;endArrow=none;endFill=0;" edge="1" parent="1" source="gqW_zt_hQoUjc86rOhtZ-43" target="gqW_zt_hQoUjc86rOhtZ-44">
          <mxGeometry relative="1" as="geometry" />
        </mxCell>
        <mxCell id="gqW_zt_hQoUjc86rOhtZ-43" value="V" style="verticalLabelPosition=middle;shadow=0;dashed=0;align=center;html=1;verticalAlign=middle;strokeWidth=1;shape=ellipse;aspect=fixed;fontSize=50;" vertex="1" parent="1">
          <mxGeometry x="1245" y="185" width="90" height="90" as="geometry" />
        </mxCell>
        <mxCell id="gqW_zt_hQoUjc86rOhtZ-44" value="A" style="verticalLabelPosition=middle;shadow=0;dashed=0;align=center;html=1;verticalAlign=middle;strokeWidth=1;shape=ellipse;aspect=fixed;fontSize=50;" vertex="1" parent="1">
          <mxGeometry x="1360" y="275" width="90" height="90" as="geometry" />
        </mxCell>
        <mxCell id="gqW_zt_hQoUjc86rOhtZ-45" style="edgeStyle=orthogonalEdgeStyle;rounded=0;orthogonalLoop=1;jettySize=auto;html=1;exitX=1;exitY=0.5;exitDx=0;exitDy=0;exitPerimeter=0;entryX=0.5;entryY=1;entryDx=0;entryDy=0;endArrow=none;endFill=0;" edge="1" parent="1" target="gqW_zt_hQoUjc86rOhtZ-44" source="gqW_zt_hQoUjc86rOhtZ-58">
          <mxGeometry relative="1" as="geometry">
            <mxPoint x="1335" y="410" as="sourcePoint" />
          </mxGeometry>
        </mxCell>
        <mxCell id="gqW_zt_hQoUjc86rOhtZ-46" style="edgeStyle=orthogonalEdgeStyle;rounded=0;orthogonalLoop=1;jettySize=auto;html=1;exitX=0;exitY=0.5;exitDx=0;exitDy=0;exitPerimeter=0;entryX=0;entryY=0.5;entryDx=0;entryDy=0;endArrow=none;endFill=0;" edge="1" parent="1" target="gqW_zt_hQoUjc86rOhtZ-43">
          <mxGeometry relative="1" as="geometry">
            <mxPoint x="1160" y="270" as="targetPoint" />
            <Array as="points">
              <mxPoint x="1160" y="410" />
              <mxPoint x="1160" y="230" />
            </Array>
            <mxPoint x="1234.9999999999998" y="410" as="sourcePoint" />
          </mxGeometry>
        </mxCell>
        <mxCell id="gqW_zt_hQoUjc86rOhtZ-47" value="\(PV_1\)" style="text;html=1;strokeColor=none;fillColor=none;align=center;verticalAlign=middle;whiteSpace=wrap;rounded=0;fontSize=18;" vertex="1" parent="1">
          <mxGeometry x="1275" y="115" width="60" height="30" as="geometry" />
        </mxCell>
        <mxCell id="gqW_zt_hQoUjc86rOhtZ-48" value="&lt;blockquote style=&quot;margin: 0 0 0 40px; border: none; padding: 0px;&quot;&gt;&lt;br&gt;&lt;/blockquote&gt;" style="text;html=1;strokeColor=none;fillColor=none;align=center;verticalAlign=middle;whiteSpace=wrap;rounded=0;fontSize=18;" vertex="1" parent="1">
          <mxGeometry x="1255" y="420" width="60" height="30" as="geometry" />
        </mxCell>
        <mxCell id="gqW_zt_hQoUjc86rOhtZ-49" value="Short&lt;br&gt;circuit" style="text;html=1;strokeColor=none;fillColor=none;align=center;verticalAlign=middle;whiteSpace=wrap;rounded=0;fontSize=18;" vertex="1" parent="1">
          <mxGeometry x="1260" y="430" width="60" height="30" as="geometry" />
        </mxCell>
        <mxCell id="gqW_zt_hQoUjc86rOhtZ-50" value="Voltmeter" style="text;html=1;strokeColor=none;fillColor=none;align=center;verticalAlign=middle;whiteSpace=wrap;rounded=0;" vertex="1" parent="1">
          <mxGeometry x="1260" y="280" width="60" height="30" as="geometry" />
        </mxCell>
        <mxCell id="gqW_zt_hQoUjc86rOhtZ-51" value="Ammeter&amp;nbsp;" style="text;html=1;strokeColor=none;fillColor=none;align=center;verticalAlign=middle;whiteSpace=wrap;rounded=0;" vertex="1" parent="1">
          <mxGeometry x="1460" y="305" width="60" height="30" as="geometry" />
        </mxCell>
        <mxCell id="gqW_zt_hQoUjc86rOhtZ-52" value="3" style="ellipse;whiteSpace=wrap;html=1;aspect=fixed;fontSize=28;fontStyle=1;fillColor=#f5f5f5;fontColor=#333333;strokeColor=#666666;" vertex="1" parent="1">
          <mxGeometry x="1080" y="40" width="50" height="50" as="geometry" />
        </mxCell>
        <mxCell id="gqW_zt_hQoUjc86rOhtZ-53" style="edgeStyle=orthogonalEdgeStyle;rounded=0;orthogonalLoop=1;jettySize=auto;html=1;exitX=0.5;exitY=0;exitDx=0;exitDy=0;exitPerimeter=0;entryX=1;entryY=0.5;entryDx=0;entryDy=0;endArrow=none;endFill=0;" edge="1" parent="1" source="gqW_zt_hQoUjc86rOhtZ-54" target="gqW_zt_hQoUjc86rOhtZ-39">
          <mxGeometry relative="1" as="geometry" />
        </mxCell>
        <mxCell id="gqW_zt_hQoUjc86rOhtZ-54" value="" style="pointerEvents=1;verticalLabelPosition=bottom;shadow=0;dashed=0;align=center;html=1;verticalAlign=top;shape=mxgraph.electrical.signal_sources.signal_ground;" vertex="1" parent="1">
          <mxGeometry x="1440" y="155" width="45" height="30" as="geometry" />
        </mxCell>
        <mxCell id="gqW_zt_hQoUjc86rOhtZ-55" value="" style="endArrow=none;html=1;rounded=0;" edge="1" parent="1" source="gqW_zt_hQoUjc86rOhtZ-56">
          <mxGeometry width="50" height="50" relative="1" as="geometry">
            <mxPoint x="1230" y="410" as="sourcePoint" />
            <mxPoint x="1340" y="410" as="targetPoint" />
          </mxGeometry>
        </mxCell>
        <mxCell id="gqW_zt_hQoUjc86rOhtZ-57" value="" style="endArrow=none;html=1;rounded=0;" edge="1" parent="1" target="gqW_zt_hQoUjc86rOhtZ-56">
          <mxGeometry width="50" height="50" relative="1" as="geometry">
            <mxPoint x="1230" y="410" as="sourcePoint" />
            <mxPoint x="1340" y="410" as="targetPoint" />
          </mxGeometry>
        </mxCell>
        <mxCell id="gqW_zt_hQoUjc86rOhtZ-56" value="" style="ellipse;whiteSpace=wrap;html=1;aspect=fixed;fillColor=#000000;" vertex="1" parent="1">
          <mxGeometry x="1230" y="407.5" width="5" height="5" as="geometry" />
        </mxCell>
        <mxCell id="gqW_zt_hQoUjc86rOhtZ-59" value="" style="edgeStyle=orthogonalEdgeStyle;rounded=0;orthogonalLoop=1;jettySize=auto;html=1;exitX=1;exitY=0.5;exitDx=0;exitDy=0;exitPerimeter=0;entryX=0.5;entryY=1;entryDx=0;entryDy=0;endArrow=none;endFill=0;" edge="1" parent="1" target="gqW_zt_hQoUjc86rOhtZ-58">
          <mxGeometry relative="1" as="geometry">
            <mxPoint x="1335" y="410" as="sourcePoint" />
            <mxPoint x="1405" y="365" as="targetPoint" />
          </mxGeometry>
        </mxCell>
        <mxCell id="gqW_zt_hQoUjc86rOhtZ-58" value="" style="ellipse;whiteSpace=wrap;html=1;aspect=fixed;fillColor=#000000;" vertex="1" parent="1">
          <mxGeometry x="1345" y="407.5" width="5" height="5" as="geometry" />
        </mxCell>
      </root>
    </mxGraphModel>
  </diagram>
  <diagram name="no-shaded" id="g843L0DpfHVV4wGGeB4h">
    <mxGraphModel dx="1121" dy="766" grid="1" gridSize="10" guides="1" tooltips="1" connect="1" arrows="1" fold="1" page="1" pageScale="1" pageWidth="3300" pageHeight="2339" math="1" shadow="0">
      <root>
        <mxCell id="vhE8CBJcdhlHBt7ORPzY-0" />
        <mxCell id="vhE8CBJcdhlHBt7ORPzY-1" parent="vhE8CBJcdhlHBt7ORPzY-0" />
        <mxCell id="vhE8CBJcdhlHBt7ORPzY-2" style="edgeStyle=orthogonalEdgeStyle;rounded=0;orthogonalLoop=1;jettySize=auto;html=1;exitX=1;exitY=0.5;exitDx=0;exitDy=0;entryX=0;entryY=0.5;entryDx=0;entryDy=0;endArrow=none;endFill=0;" edge="1" parent="vhE8CBJcdhlHBt7ORPzY-1" source="vhE8CBJcdhlHBt7ORPzY-3" target="vhE8CBJcdhlHBt7ORPzY-19">
          <mxGeometry relative="1" as="geometry" />
        </mxCell>
        <mxCell id="vhE8CBJcdhlHBt7ORPzY-3" value="" style="rounded=0;whiteSpace=wrap;html=1;" vertex="1" parent="vhE8CBJcdhlHBt7ORPzY-1">
          <mxGeometry x="190" y="200" width="120" height="60" as="geometry" />
        </mxCell>
        <mxCell id="vhE8CBJcdhlHBt7ORPzY-4" style="edgeStyle=orthogonalEdgeStyle;rounded=0;orthogonalLoop=1;jettySize=auto;html=1;exitX=0;exitY=0.5;exitDx=0;exitDy=0;entryX=0;entryY=0.5;entryDx=0;entryDy=0;endArrow=none;endFill=0;" edge="1" parent="vhE8CBJcdhlHBt7ORPzY-1" source="vhE8CBJcdhlHBt7ORPzY-5" target="vhE8CBJcdhlHBt7ORPzY-7">
          <mxGeometry relative="1" as="geometry">
            <Array as="points">
              <mxPoint x="150" y="230" />
              <mxPoint x="150" y="395" />
            </Array>
          </mxGeometry>
        </mxCell>
        <mxCell id="vhE8CBJcdhlHBt7ORPzY-5" value="" style="triangle;whiteSpace=wrap;html=1;" vertex="1" parent="vhE8CBJcdhlHBt7ORPzY-1">
          <mxGeometry x="190" y="200" width="45" height="60" as="geometry" />
        </mxCell>
        <mxCell id="vhE8CBJcdhlHBt7ORPzY-6" style="edgeStyle=orthogonalEdgeStyle;rounded=0;orthogonalLoop=1;jettySize=auto;html=1;exitX=1;exitY=0.5;exitDx=0;exitDy=0;entryX=0.5;entryY=0;entryDx=0;entryDy=0;endArrow=none;endFill=0;" edge="1" parent="vhE8CBJcdhlHBt7ORPzY-1" source="vhE8CBJcdhlHBt7ORPzY-7" target="vhE8CBJcdhlHBt7ORPzY-8">
          <mxGeometry relative="1" as="geometry" />
        </mxCell>
        <mxCell id="vhE8CBJcdhlHBt7ORPzY-7" value="V" style="verticalLabelPosition=middle;shadow=0;dashed=0;align=center;html=1;verticalAlign=middle;strokeWidth=1;shape=ellipse;aspect=fixed;fontSize=30;" vertex="1" parent="vhE8CBJcdhlHBt7ORPzY-1">
          <mxGeometry x="463" y="373" width="44" height="44" as="geometry" />
        </mxCell>
        <mxCell id="vhE8CBJcdhlHBt7ORPzY-8" value="A" style="verticalLabelPosition=middle;shadow=0;dashed=0;align=center;html=1;verticalAlign=middle;strokeWidth=1;shape=ellipse;aspect=fixed;fontSize=30;" vertex="1" parent="vhE8CBJcdhlHBt7ORPzY-1">
          <mxGeometry x="816" y="430" width="44" height="44" as="geometry" />
        </mxCell>
        <mxCell id="vhE8CBJcdhlHBt7ORPzY-9" style="edgeStyle=orthogonalEdgeStyle;rounded=0;orthogonalLoop=1;jettySize=auto;html=1;exitX=1;exitY=0.5;exitDx=0;exitDy=0;exitPerimeter=0;entryX=0.5;entryY=1;entryDx=0;entryDy=0;endArrow=none;endFill=0;" edge="1" parent="vhE8CBJcdhlHBt7ORPzY-1" source="vhE8CBJcdhlHBt7ORPzY-11" target="vhE8CBJcdhlHBt7ORPzY-8">
          <mxGeometry relative="1" as="geometry" />
        </mxCell>
        <mxCell id="vhE8CBJcdhlHBt7ORPzY-10" style="edgeStyle=orthogonalEdgeStyle;rounded=0;orthogonalLoop=1;jettySize=auto;html=1;exitX=0;exitY=0.5;exitDx=0;exitDy=0;exitPerimeter=0;entryX=0;entryY=0.5;entryDx=0;entryDy=0;endArrow=none;endFill=0;" edge="1" parent="vhE8CBJcdhlHBt7ORPzY-1" source="vhE8CBJcdhlHBt7ORPzY-11" target="vhE8CBJcdhlHBt7ORPzY-7">
          <mxGeometry relative="1" as="geometry">
            <mxPoint x="110" y="410" as="targetPoint" />
            <Array as="points">
              <mxPoint x="430" y="550" />
              <mxPoint x="150" y="550" />
              <mxPoint x="150" y="395" />
            </Array>
          </mxGeometry>
        </mxCell>
        <mxCell id="vhE8CBJcdhlHBt7ORPzY-11" value="" style="pointerEvents=1;verticalLabelPosition=bottom;shadow=0;dashed=0;align=center;html=1;verticalAlign=top;shape=mxgraph.electrical.resistors.resistor_1;" vertex="1" parent="vhE8CBJcdhlHBt7ORPzY-1">
          <mxGeometry x="408" y="533" width="154" height="34" as="geometry" />
        </mxCell>
        <mxCell id="vhE8CBJcdhlHBt7ORPzY-12" value="\(PV_1\)" style="text;html=1;strokeColor=none;fillColor=none;align=center;verticalAlign=middle;whiteSpace=wrap;rounded=0;fontSize=18;" vertex="1" parent="vhE8CBJcdhlHBt7ORPzY-1">
          <mxGeometry x="235" y="215" width="60" height="30" as="geometry" />
        </mxCell>
        <mxCell id="vhE8CBJcdhlHBt7ORPzY-13" value="&lt;blockquote style=&quot;margin: 0 0 0 40px; border: none; padding: 0px;&quot;&gt;&lt;br&gt;&lt;/blockquote&gt;" style="text;html=1;strokeColor=none;fillColor=none;align=center;verticalAlign=middle;whiteSpace=wrap;rounded=0;fontSize=18;" vertex="1" parent="vhE8CBJcdhlHBt7ORPzY-1">
          <mxGeometry x="450" y="585" width="60" height="30" as="geometry" />
        </mxCell>
        <mxCell id="vhE8CBJcdhlHBt7ORPzY-14" value="\(R_{LOAD}\)" style="text;html=1;strokeColor=none;fillColor=none;align=center;verticalAlign=middle;whiteSpace=wrap;rounded=0;fontSize=18;" vertex="1" parent="vhE8CBJcdhlHBt7ORPzY-1">
          <mxGeometry x="455" y="535" width="60" height="30" as="geometry" />
        </mxCell>
        <mxCell id="vhE8CBJcdhlHBt7ORPzY-15" value="Voltmeter" style="text;html=1;strokeColor=none;fillColor=none;align=center;verticalAlign=middle;whiteSpace=wrap;rounded=0;" vertex="1" parent="vhE8CBJcdhlHBt7ORPzY-1">
          <mxGeometry x="455" y="420" width="60" height="30" as="geometry" />
        </mxCell>
        <mxCell id="vhE8CBJcdhlHBt7ORPzY-16" value="Ammeter&amp;nbsp;" style="text;html=1;strokeColor=none;fillColor=none;align=center;verticalAlign=middle;whiteSpace=wrap;rounded=0;" vertex="1" parent="vhE8CBJcdhlHBt7ORPzY-1">
          <mxGeometry x="860" y="437" width="60" height="30" as="geometry" />
        </mxCell>
        <mxCell id="vhE8CBJcdhlHBt7ORPzY-17" style="edgeStyle=orthogonalEdgeStyle;rounded=0;orthogonalLoop=1;jettySize=auto;html=1;exitX=1;exitY=0.5;exitDx=0;exitDy=0;entryX=0;entryY=0.5;entryDx=0;entryDy=0;endArrow=none;endFill=0;" edge="1" parent="vhE8CBJcdhlHBt7ORPzY-1" source="vhE8CBJcdhlHBt7ORPzY-18" target="vhE8CBJcdhlHBt7ORPzY-23">
          <mxGeometry relative="1" as="geometry" />
        </mxCell>
        <mxCell id="vhE8CBJcdhlHBt7ORPzY-18" value="" style="rounded=0;whiteSpace=wrap;html=1;" vertex="1" parent="vhE8CBJcdhlHBt7ORPzY-1">
          <mxGeometry x="350" y="200" width="120" height="60" as="geometry" />
        </mxCell>
        <mxCell id="vhE8CBJcdhlHBt7ORPzY-19" value="" style="triangle;whiteSpace=wrap;html=1;" vertex="1" parent="vhE8CBJcdhlHBt7ORPzY-1">
          <mxGeometry x="350" y="200" width="45" height="60" as="geometry" />
        </mxCell>
        <mxCell id="vhE8CBJcdhlHBt7ORPzY-20" value="\(PV_2\)" style="text;html=1;strokeColor=none;fillColor=none;align=center;verticalAlign=middle;whiteSpace=wrap;rounded=0;fontSize=18;" vertex="1" parent="vhE8CBJcdhlHBt7ORPzY-1">
          <mxGeometry x="395" y="215" width="60" height="30" as="geometry" />
        </mxCell>
        <mxCell id="vhE8CBJcdhlHBt7ORPzY-21" style="edgeStyle=orthogonalEdgeStyle;rounded=0;orthogonalLoop=1;jettySize=auto;html=1;exitX=1;exitY=0.5;exitDx=0;exitDy=0;entryX=0;entryY=0.5;entryDx=0;entryDy=0;endArrow=none;endFill=0;" edge="1" parent="vhE8CBJcdhlHBt7ORPzY-1" source="vhE8CBJcdhlHBt7ORPzY-22" target="vhE8CBJcdhlHBt7ORPzY-27">
          <mxGeometry relative="1" as="geometry" />
        </mxCell>
        <mxCell id="vhE8CBJcdhlHBt7ORPzY-22" value="" style="rounded=0;whiteSpace=wrap;html=1;" vertex="1" parent="vhE8CBJcdhlHBt7ORPzY-1">
          <mxGeometry x="510" y="200" width="120" height="60" as="geometry" />
        </mxCell>
        <mxCell id="vhE8CBJcdhlHBt7ORPzY-23" value="" style="triangle;whiteSpace=wrap;html=1;" vertex="1" parent="vhE8CBJcdhlHBt7ORPzY-1">
          <mxGeometry x="510" y="200" width="45" height="60" as="geometry" />
        </mxCell>
        <mxCell id="vhE8CBJcdhlHBt7ORPzY-24" value="\(PV_3\)" style="text;html=1;strokeColor=none;fillColor=none;align=center;verticalAlign=middle;whiteSpace=wrap;rounded=0;fontSize=18;" vertex="1" parent="vhE8CBJcdhlHBt7ORPzY-1">
          <mxGeometry x="555" y="215" width="60" height="30" as="geometry" />
        </mxCell>
        <mxCell id="vhE8CBJcdhlHBt7ORPzY-25" style="edgeStyle=orthogonalEdgeStyle;rounded=0;orthogonalLoop=1;jettySize=auto;html=1;exitX=1;exitY=0.5;exitDx=0;exitDy=0;entryX=0.5;entryY=0;entryDx=0;entryDy=0;endArrow=none;endFill=0;" edge="1" parent="vhE8CBJcdhlHBt7ORPzY-1" source="vhE8CBJcdhlHBt7ORPzY-26" target="vhE8CBJcdhlHBt7ORPzY-8">
          <mxGeometry relative="1" as="geometry" />
        </mxCell>
        <mxCell id="vhE8CBJcdhlHBt7ORPzY-26" value="" style="rounded=0;whiteSpace=wrap;html=1;" vertex="1" parent="vhE8CBJcdhlHBt7ORPzY-1">
          <mxGeometry x="670" y="200" width="120" height="60" as="geometry" />
        </mxCell>
        <mxCell id="vhE8CBJcdhlHBt7ORPzY-27" value="" style="triangle;whiteSpace=wrap;html=1;" vertex="1" parent="vhE8CBJcdhlHBt7ORPzY-1">
          <mxGeometry x="670" y="200" width="45" height="60" as="geometry" />
        </mxCell>
        <mxCell id="vhE8CBJcdhlHBt7ORPzY-28" value="\(PV_4\)" style="text;html=1;strokeColor=none;fillColor=none;align=center;verticalAlign=middle;whiteSpace=wrap;rounded=0;fontSize=18;" vertex="1" parent="vhE8CBJcdhlHBt7ORPzY-1">
          <mxGeometry x="715" y="215" width="60" height="30" as="geometry" />
        </mxCell>
        <mxCell id="vhE8CBJcdhlHBt7ORPzY-29" value="\(V_1\)" style="text;html=1;strokeColor=none;fillColor=none;align=center;verticalAlign=middle;whiteSpace=wrap;rounded=0;" vertex="1" parent="vhE8CBJcdhlHBt7ORPzY-1">
          <mxGeometry x="220" y="150" width="60" height="30" as="geometry" />
        </mxCell>
        <mxCell id="vhE8CBJcdhlHBt7ORPzY-30" value="\(V_2\)" style="text;html=1;strokeColor=none;fillColor=none;align=center;verticalAlign=middle;whiteSpace=wrap;rounded=0;" vertex="1" parent="vhE8CBJcdhlHBt7ORPzY-1">
          <mxGeometry x="390" y="150" width="60" height="30" as="geometry" />
        </mxCell>
        <mxCell id="vhE8CBJcdhlHBt7ORPzY-31" value="\(V_3\)" style="text;html=1;strokeColor=none;fillColor=none;align=center;verticalAlign=middle;whiteSpace=wrap;rounded=0;" vertex="1" parent="vhE8CBJcdhlHBt7ORPzY-1">
          <mxGeometry x="540" y="150" width="60" height="30" as="geometry" />
        </mxCell>
        <mxCell id="vhE8CBJcdhlHBt7ORPzY-32" value="\(V_4\)" style="text;html=1;strokeColor=none;fillColor=none;align=center;verticalAlign=middle;whiteSpace=wrap;rounded=0;" vertex="1" parent="vhE8CBJcdhlHBt7ORPzY-1">
          <mxGeometry x="700" y="150" width="60" height="30" as="geometry" />
        </mxCell>
        <mxCell id="vhE8CBJcdhlHBt7ORPzY-33" value="\(I\)" style="text;html=1;strokeColor=none;fillColor=none;align=center;verticalAlign=middle;whiteSpace=wrap;rounded=0;" vertex="1" parent="vhE8CBJcdhlHBt7ORPzY-1">
          <mxGeometry x="90" y="320" width="60" height="30" as="geometry" />
        </mxCell>
        <mxCell id="vhE8CBJcdhlHBt7ORPzY-34" value="" style="endArrow=classic;html=1;rounded=0;fillColor=#f8cecc;strokeColor=#b85450;" edge="1" parent="vhE8CBJcdhlHBt7ORPzY-1">
          <mxGeometry width="50" height="50" relative="1" as="geometry">
            <mxPoint x="130" y="310" as="sourcePoint" />
            <mxPoint x="130" y="360" as="targetPoint" />
          </mxGeometry>
        </mxCell>
        <mxCell id="vhE8CBJcdhlHBt7ORPzY-35" value="\(I\)" style="text;html=1;strokeColor=none;fillColor=none;align=center;verticalAlign=middle;whiteSpace=wrap;rounded=0;" vertex="1" parent="vhE8CBJcdhlHBt7ORPzY-1">
          <mxGeometry x="270" y="570" width="60" height="30" as="geometry" />
        </mxCell>
        <mxCell id="vhE8CBJcdhlHBt7ORPzY-36" value="" style="endArrow=classic;html=1;rounded=0;fillColor=#f8cecc;strokeColor=#b85450;" edge="1" parent="vhE8CBJcdhlHBt7ORPzY-1">
          <mxGeometry width="50" height="50" relative="1" as="geometry">
            <mxPoint x="270" y="570" as="sourcePoint" />
            <mxPoint x="330" y="570" as="targetPoint" />
          </mxGeometry>
        </mxCell>
        <mxCell id="vhE8CBJcdhlHBt7ORPzY-37" value="\(V_{R}\)" style="text;html=1;strokeColor=none;fillColor=none;align=center;verticalAlign=middle;whiteSpace=wrap;rounded=0;" vertex="1" parent="vhE8CBJcdhlHBt7ORPzY-1">
          <mxGeometry x="455" y="567" width="60" height="30" as="geometry" />
        </mxCell>
        <mxCell id="vhE8CBJcdhlHBt7ORPzY-38" value="\( \approx&amp;nbsp; 0 A\)" style="text;html=1;strokeColor=none;fillColor=none;align=center;verticalAlign=middle;whiteSpace=wrap;rounded=0;" vertex="1" parent="vhE8CBJcdhlHBt7ORPzY-1">
          <mxGeometry x="270" y="410" width="60" height="30" as="geometry" />
        </mxCell>
        <mxCell id="vhE8CBJcdhlHBt7ORPzY-39" value="" style="endArrow=classic;html=1;rounded=0;fillColor=#f8cecc;strokeColor=#b85450;" edge="1" parent="vhE8CBJcdhlHBt7ORPzY-1">
          <mxGeometry width="50" height="50" relative="1" as="geometry">
            <mxPoint x="270" y="410" as="sourcePoint" />
            <mxPoint x="330" y="410" as="targetPoint" />
          </mxGeometry>
        </mxCell>
        <mxCell id="vhE8CBJcdhlHBt7ORPzY-40" value="\( \approx&amp;nbsp; 0 V\)" style="text;html=1;strokeColor=none;fillColor=none;align=center;verticalAlign=middle;whiteSpace=wrap;rounded=0;" vertex="1" parent="vhE8CBJcdhlHBt7ORPzY-1">
          <mxGeometry x="756" y="439" width="60" height="30" as="geometry" />
        </mxCell>
        <mxCell id="vhE8CBJcdhlHBt7ORPzY-41" value="" style="endArrow=classic;html=1;rounded=0;fillColor=#f8cecc;strokeColor=#b85450;" edge="1" parent="vhE8CBJcdhlHBt7ORPzY-1">
          <mxGeometry width="50" height="50" relative="1" as="geometry">
            <mxPoint x="806" y="434" as="sourcePoint" />
            <mxPoint x="806" y="474" as="targetPoint" />
          </mxGeometry>
        </mxCell>
        <mxCell id="vhE8CBJcdhlHBt7ORPzY-42" value="" style="pointerEvents=1;verticalLabelPosition=bottom;shadow=0;dashed=0;align=center;html=1;verticalAlign=top;shape=mxgraph.electrical.signal_sources.signal_ground;" vertex="1" parent="vhE8CBJcdhlHBt7ORPzY-1">
          <mxGeometry x="860" y="285" width="45" height="30" as="geometry" />
        </mxCell>
        <mxCell id="vhE8CBJcdhlHBt7ORPzY-43" style="edgeStyle=orthogonalEdgeStyle;rounded=0;orthogonalLoop=1;jettySize=auto;html=1;exitX=1;exitY=0.5;exitDx=0;exitDy=0;entryX=0.5;entryY=0;entryDx=0;entryDy=0;entryPerimeter=0;endArrow=none;endFill=0;" edge="1" parent="vhE8CBJcdhlHBt7ORPzY-1" source="vhE8CBJcdhlHBt7ORPzY-26" target="vhE8CBJcdhlHBt7ORPzY-42">
          <mxGeometry relative="1" as="geometry">
            <Array as="points">
              <mxPoint x="883" y="230" />
            </Array>
          </mxGeometry>
        </mxCell>
        <mxCell id="vhE8CBJcdhlHBt7ORPzY-44" value="" style="endArrow=classic;html=1;rounded=0;fillColor=#f8cecc;strokeColor=#b85450;" edge="1" parent="vhE8CBJcdhlHBt7ORPzY-1">
          <mxGeometry width="50" height="50" relative="1" as="geometry">
            <mxPoint x="220" y="180" as="sourcePoint" />
            <mxPoint x="280" y="180" as="targetPoint" />
          </mxGeometry>
        </mxCell>
        <mxCell id="vhE8CBJcdhlHBt7ORPzY-45" value="" style="endArrow=none;html=1;rounded=0;fillColor=#f8cecc;strokeColor=#b85450;exitX=1;exitY=1;exitDx=0;exitDy=0;startArrow=classic;startFill=1;endFill=0;" edge="1" parent="vhE8CBJcdhlHBt7ORPzY-1">
          <mxGeometry width="50" height="50" relative="1" as="geometry">
            <mxPoint x="455" y="180.28" as="sourcePoint" />
            <mxPoint x="385" y="180" as="targetPoint" />
          </mxGeometry>
        </mxCell>
        <mxCell id="vhE8CBJcdhlHBt7ORPzY-46" value="" style="endArrow=classic;html=1;rounded=0;fillColor=#f8cecc;strokeColor=#b85450;" edge="1" parent="vhE8CBJcdhlHBt7ORPzY-1">
          <mxGeometry width="50" height="50" relative="1" as="geometry">
            <mxPoint x="540" y="179.57999999999998" as="sourcePoint" />
            <mxPoint x="600" y="179.57999999999998" as="targetPoint" />
          </mxGeometry>
        </mxCell>
        <mxCell id="vhE8CBJcdhlHBt7ORPzY-47" value="" style="endArrow=classic;html=1;rounded=0;fillColor=#f8cecc;strokeColor=#b85450;" edge="1" parent="vhE8CBJcdhlHBt7ORPzY-1">
          <mxGeometry width="50" height="50" relative="1" as="geometry">
            <mxPoint x="700" y="179.57999999999998" as="sourcePoint" />
            <mxPoint x="760" y="179.57999999999998" as="targetPoint" />
          </mxGeometry>
        </mxCell>
      </root>
    </mxGraphModel>
  </diagram>
  <diagram name="shaded" id="x0jhL2XnNWI1HoV_t68u">
    <mxGraphModel dx="1159" dy="792" grid="1" gridSize="10" guides="1" tooltips="1" connect="1" arrows="1" fold="1" page="1" pageScale="1" pageWidth="3300" pageHeight="2339" math="1" shadow="0">
      <root>
        <mxCell id="ahzk-5AAl7I9ZavJ1hb2-0" />
        <mxCell id="ahzk-5AAl7I9ZavJ1hb2-1" parent="ahzk-5AAl7I9ZavJ1hb2-0" />
        <mxCell id="ahzk-5AAl7I9ZavJ1hb2-2" style="edgeStyle=orthogonalEdgeStyle;rounded=0;orthogonalLoop=1;jettySize=auto;html=1;exitX=1;exitY=0.5;exitDx=0;exitDy=0;entryX=0;entryY=0.5;entryDx=0;entryDy=0;endArrow=none;endFill=0;" edge="1" parent="ahzk-5AAl7I9ZavJ1hb2-1" source="ahzk-5AAl7I9ZavJ1hb2-3" target="ahzk-5AAl7I9ZavJ1hb2-19">
          <mxGeometry relative="1" as="geometry" />
        </mxCell>
        <mxCell id="ahzk-5AAl7I9ZavJ1hb2-3" value="" style="rounded=0;whiteSpace=wrap;html=1;" vertex="1" parent="ahzk-5AAl7I9ZavJ1hb2-1">
          <mxGeometry x="190" y="200" width="120" height="60" as="geometry" />
        </mxCell>
        <mxCell id="ahzk-5AAl7I9ZavJ1hb2-4" style="edgeStyle=orthogonalEdgeStyle;rounded=0;orthogonalLoop=1;jettySize=auto;html=1;exitX=0;exitY=0.5;exitDx=0;exitDy=0;entryX=0;entryY=0.5;entryDx=0;entryDy=0;endArrow=none;endFill=0;" edge="1" parent="ahzk-5AAl7I9ZavJ1hb2-1" source="ahzk-5AAl7I9ZavJ1hb2-5" target="ahzk-5AAl7I9ZavJ1hb2-7">
          <mxGeometry relative="1" as="geometry">
            <Array as="points">
              <mxPoint x="150" y="230" />
              <mxPoint x="150" y="395" />
            </Array>
          </mxGeometry>
        </mxCell>
        <mxCell id="ahzk-5AAl7I9ZavJ1hb2-5" value="" style="triangle;whiteSpace=wrap;html=1;" vertex="1" parent="ahzk-5AAl7I9ZavJ1hb2-1">
          <mxGeometry x="190" y="200" width="45" height="60" as="geometry" />
        </mxCell>
        <mxCell id="ahzk-5AAl7I9ZavJ1hb2-6" style="edgeStyle=orthogonalEdgeStyle;rounded=0;orthogonalLoop=1;jettySize=auto;html=1;exitX=1;exitY=0.5;exitDx=0;exitDy=0;entryX=0.5;entryY=0;entryDx=0;entryDy=0;endArrow=none;endFill=0;" edge="1" parent="ahzk-5AAl7I9ZavJ1hb2-1" source="ahzk-5AAl7I9ZavJ1hb2-7" target="ahzk-5AAl7I9ZavJ1hb2-8">
          <mxGeometry relative="1" as="geometry" />
        </mxCell>
        <mxCell id="ahzk-5AAl7I9ZavJ1hb2-7" value="V" style="verticalLabelPosition=middle;shadow=0;dashed=0;align=center;html=1;verticalAlign=middle;strokeWidth=1;shape=ellipse;aspect=fixed;fontSize=30;" vertex="1" parent="ahzk-5AAl7I9ZavJ1hb2-1">
          <mxGeometry x="463" y="373" width="44" height="44" as="geometry" />
        </mxCell>
        <mxCell id="ahzk-5AAl7I9ZavJ1hb2-8" value="A" style="verticalLabelPosition=middle;shadow=0;dashed=0;align=center;html=1;verticalAlign=middle;strokeWidth=1;shape=ellipse;aspect=fixed;fontSize=30;" vertex="1" parent="ahzk-5AAl7I9ZavJ1hb2-1">
          <mxGeometry x="816" y="430" width="44" height="44" as="geometry" />
        </mxCell>
        <mxCell id="ahzk-5AAl7I9ZavJ1hb2-9" style="edgeStyle=orthogonalEdgeStyle;rounded=0;orthogonalLoop=1;jettySize=auto;html=1;exitX=1;exitY=0.5;exitDx=0;exitDy=0;exitPerimeter=0;entryX=0.5;entryY=1;entryDx=0;entryDy=0;endArrow=none;endFill=0;" edge="1" parent="ahzk-5AAl7I9ZavJ1hb2-1" source="ahzk-5AAl7I9ZavJ1hb2-11" target="ahzk-5AAl7I9ZavJ1hb2-8">
          <mxGeometry relative="1" as="geometry" />
        </mxCell>
        <mxCell id="ahzk-5AAl7I9ZavJ1hb2-10" style="edgeStyle=orthogonalEdgeStyle;rounded=0;orthogonalLoop=1;jettySize=auto;html=1;exitX=0;exitY=0.5;exitDx=0;exitDy=0;exitPerimeter=0;entryX=0;entryY=0.5;entryDx=0;entryDy=0;endArrow=none;endFill=0;" edge="1" parent="ahzk-5AAl7I9ZavJ1hb2-1" source="ahzk-5AAl7I9ZavJ1hb2-11" target="ahzk-5AAl7I9ZavJ1hb2-7">
          <mxGeometry relative="1" as="geometry">
            <mxPoint x="110" y="410" as="targetPoint" />
            <Array as="points">
              <mxPoint x="430" y="550" />
              <mxPoint x="150" y="550" />
              <mxPoint x="150" y="395" />
            </Array>
          </mxGeometry>
        </mxCell>
        <mxCell id="ahzk-5AAl7I9ZavJ1hb2-11" value="" style="pointerEvents=1;verticalLabelPosition=bottom;shadow=0;dashed=0;align=center;html=1;verticalAlign=top;shape=mxgraph.electrical.resistors.resistor_1;" vertex="1" parent="ahzk-5AAl7I9ZavJ1hb2-1">
          <mxGeometry x="408" y="533" width="154" height="34" as="geometry" />
        </mxCell>
        <mxCell id="ahzk-5AAl7I9ZavJ1hb2-12" value="\(PV_1\)" style="text;html=1;strokeColor=none;fillColor=none;align=center;verticalAlign=middle;whiteSpace=wrap;rounded=0;fontSize=18;" vertex="1" parent="ahzk-5AAl7I9ZavJ1hb2-1">
          <mxGeometry x="235" y="215" width="60" height="30" as="geometry" />
        </mxCell>
        <mxCell id="ahzk-5AAl7I9ZavJ1hb2-13" value="&lt;blockquote style=&quot;margin: 0 0 0 40px; border: none; padding: 0px;&quot;&gt;&lt;br&gt;&lt;/blockquote&gt;" style="text;html=1;strokeColor=none;fillColor=none;align=center;verticalAlign=middle;whiteSpace=wrap;rounded=0;fontSize=18;" vertex="1" parent="ahzk-5AAl7I9ZavJ1hb2-1">
          <mxGeometry x="450" y="585" width="60" height="30" as="geometry" />
        </mxCell>
        <mxCell id="ahzk-5AAl7I9ZavJ1hb2-14" value="\(R_{LOAD}\)" style="text;html=1;strokeColor=none;fillColor=none;align=center;verticalAlign=middle;whiteSpace=wrap;rounded=0;fontSize=18;" vertex="1" parent="ahzk-5AAl7I9ZavJ1hb2-1">
          <mxGeometry x="455" y="535" width="60" height="30" as="geometry" />
        </mxCell>
        <mxCell id="ahzk-5AAl7I9ZavJ1hb2-15" value="Voltmeter" style="text;html=1;strokeColor=none;fillColor=none;align=center;verticalAlign=middle;whiteSpace=wrap;rounded=0;" vertex="1" parent="ahzk-5AAl7I9ZavJ1hb2-1">
          <mxGeometry x="455" y="420" width="60" height="30" as="geometry" />
        </mxCell>
        <mxCell id="ahzk-5AAl7I9ZavJ1hb2-16" value="Ammeter&amp;nbsp;" style="text;html=1;strokeColor=none;fillColor=none;align=center;verticalAlign=middle;whiteSpace=wrap;rounded=0;" vertex="1" parent="ahzk-5AAl7I9ZavJ1hb2-1">
          <mxGeometry x="860" y="437" width="60" height="30" as="geometry" />
        </mxCell>
        <mxCell id="ahzk-5AAl7I9ZavJ1hb2-17" style="edgeStyle=orthogonalEdgeStyle;rounded=0;orthogonalLoop=1;jettySize=auto;html=1;exitX=1;exitY=0.5;exitDx=0;exitDy=0;entryX=0;entryY=0.5;entryDx=0;entryDy=0;endArrow=none;endFill=0;" edge="1" parent="ahzk-5AAl7I9ZavJ1hb2-1" source="ahzk-5AAl7I9ZavJ1hb2-18" target="ahzk-5AAl7I9ZavJ1hb2-23">
          <mxGeometry relative="1" as="geometry" />
        </mxCell>
        <mxCell id="ahzk-5AAl7I9ZavJ1hb2-18" value="" style="rounded=0;whiteSpace=wrap;html=1;" vertex="1" parent="ahzk-5AAl7I9ZavJ1hb2-1">
          <mxGeometry x="350" y="200" width="120" height="60" as="geometry" />
        </mxCell>
        <mxCell id="ahzk-5AAl7I9ZavJ1hb2-19" value="" style="triangle;whiteSpace=wrap;html=1;" vertex="1" parent="ahzk-5AAl7I9ZavJ1hb2-1">
          <mxGeometry x="350" y="200" width="45" height="60" as="geometry" />
        </mxCell>
        <mxCell id="ahzk-5AAl7I9ZavJ1hb2-20" value="\(PV_2\)" style="text;html=1;strokeColor=none;fillColor=none;align=center;verticalAlign=middle;whiteSpace=wrap;rounded=0;fontSize=18;" vertex="1" parent="ahzk-5AAl7I9ZavJ1hb2-1">
          <mxGeometry x="395" y="215" width="60" height="30" as="geometry" />
        </mxCell>
        <mxCell id="ahzk-5AAl7I9ZavJ1hb2-21" style="edgeStyle=orthogonalEdgeStyle;rounded=0;orthogonalLoop=1;jettySize=auto;html=1;exitX=1;exitY=0.5;exitDx=0;exitDy=0;entryX=0;entryY=0.5;entryDx=0;entryDy=0;endArrow=none;endFill=0;" edge="1" parent="ahzk-5AAl7I9ZavJ1hb2-1" source="ahzk-5AAl7I9ZavJ1hb2-22" target="ahzk-5AAl7I9ZavJ1hb2-27">
          <mxGeometry relative="1" as="geometry" />
        </mxCell>
        <mxCell id="ahzk-5AAl7I9ZavJ1hb2-22" value="" style="rounded=0;whiteSpace=wrap;html=1;" vertex="1" parent="ahzk-5AAl7I9ZavJ1hb2-1">
          <mxGeometry x="510" y="200" width="120" height="60" as="geometry" />
        </mxCell>
        <mxCell id="ahzk-5AAl7I9ZavJ1hb2-23" value="" style="triangle;whiteSpace=wrap;html=1;" vertex="1" parent="ahzk-5AAl7I9ZavJ1hb2-1">
          <mxGeometry x="510" y="200" width="45" height="60" as="geometry" />
        </mxCell>
        <mxCell id="ahzk-5AAl7I9ZavJ1hb2-24" value="\(PV_3\)" style="text;html=1;strokeColor=none;fillColor=none;align=center;verticalAlign=middle;whiteSpace=wrap;rounded=0;fontSize=18;" vertex="1" parent="ahzk-5AAl7I9ZavJ1hb2-1">
          <mxGeometry x="555" y="215" width="60" height="30" as="geometry" />
        </mxCell>
        <mxCell id="ahzk-5AAl7I9ZavJ1hb2-25" style="edgeStyle=orthogonalEdgeStyle;rounded=0;orthogonalLoop=1;jettySize=auto;html=1;exitX=1;exitY=0.5;exitDx=0;exitDy=0;entryX=0.5;entryY=0;entryDx=0;entryDy=0;endArrow=none;endFill=0;" edge="1" parent="ahzk-5AAl7I9ZavJ1hb2-1" source="ahzk-5AAl7I9ZavJ1hb2-26" target="ahzk-5AAl7I9ZavJ1hb2-8">
          <mxGeometry relative="1" as="geometry" />
        </mxCell>
        <mxCell id="ahzk-5AAl7I9ZavJ1hb2-26" value="" style="rounded=0;whiteSpace=wrap;html=1;" vertex="1" parent="ahzk-5AAl7I9ZavJ1hb2-1">
          <mxGeometry x="670" y="200" width="120" height="60" as="geometry" />
        </mxCell>
        <mxCell id="ahzk-5AAl7I9ZavJ1hb2-27" value="" style="triangle;whiteSpace=wrap;html=1;" vertex="1" parent="ahzk-5AAl7I9ZavJ1hb2-1">
          <mxGeometry x="670" y="200" width="45" height="60" as="geometry" />
        </mxCell>
        <mxCell id="ahzk-5AAl7I9ZavJ1hb2-28" value="\(PV_4\)" style="text;html=1;strokeColor=none;fillColor=none;align=center;verticalAlign=middle;whiteSpace=wrap;rounded=0;fontSize=18;" vertex="1" parent="ahzk-5AAl7I9ZavJ1hb2-1">
          <mxGeometry x="715" y="215" width="60" height="30" as="geometry" />
        </mxCell>
        <mxCell id="ahzk-5AAl7I9ZavJ1hb2-29" value="\(V_1\)" style="text;html=1;strokeColor=none;fillColor=none;align=center;verticalAlign=middle;whiteSpace=wrap;rounded=0;" vertex="1" parent="ahzk-5AAl7I9ZavJ1hb2-1">
          <mxGeometry x="220" y="150" width="60" height="30" as="geometry" />
        </mxCell>
        <mxCell id="ahzk-5AAl7I9ZavJ1hb2-30" value="\(V_2\)" style="text;html=1;strokeColor=none;fillColor=none;align=center;verticalAlign=middle;whiteSpace=wrap;rounded=0;" vertex="1" parent="ahzk-5AAl7I9ZavJ1hb2-1">
          <mxGeometry x="390" y="150" width="60" height="30" as="geometry" />
        </mxCell>
        <mxCell id="ahzk-5AAl7I9ZavJ1hb2-31" value="\(V_3\)" style="text;html=1;strokeColor=none;fillColor=none;align=center;verticalAlign=middle;whiteSpace=wrap;rounded=0;" vertex="1" parent="ahzk-5AAl7I9ZavJ1hb2-1">
          <mxGeometry x="540" y="150" width="60" height="30" as="geometry" />
        </mxCell>
        <mxCell id="ahzk-5AAl7I9ZavJ1hb2-32" value="\(V_4\)" style="text;html=1;strokeColor=none;fillColor=none;align=center;verticalAlign=middle;whiteSpace=wrap;rounded=0;" vertex="1" parent="ahzk-5AAl7I9ZavJ1hb2-1">
          <mxGeometry x="700" y="150" width="60" height="30" as="geometry" />
        </mxCell>
        <mxCell id="ahzk-5AAl7I9ZavJ1hb2-33" value="\(I\)" style="text;html=1;strokeColor=none;fillColor=none;align=center;verticalAlign=middle;whiteSpace=wrap;rounded=0;" vertex="1" parent="ahzk-5AAl7I9ZavJ1hb2-1">
          <mxGeometry x="90" y="320" width="60" height="30" as="geometry" />
        </mxCell>
        <mxCell id="ahzk-5AAl7I9ZavJ1hb2-34" value="" style="endArrow=classic;html=1;rounded=0;fillColor=#f8cecc;strokeColor=#b85450;" edge="1" parent="ahzk-5AAl7I9ZavJ1hb2-1">
          <mxGeometry width="50" height="50" relative="1" as="geometry">
            <mxPoint x="130" y="310" as="sourcePoint" />
            <mxPoint x="130" y="360" as="targetPoint" />
          </mxGeometry>
        </mxCell>
        <mxCell id="ahzk-5AAl7I9ZavJ1hb2-35" value="\(I\)" style="text;html=1;strokeColor=none;fillColor=none;align=center;verticalAlign=middle;whiteSpace=wrap;rounded=0;" vertex="1" parent="ahzk-5AAl7I9ZavJ1hb2-1">
          <mxGeometry x="270" y="570" width="60" height="30" as="geometry" />
        </mxCell>
        <mxCell id="ahzk-5AAl7I9ZavJ1hb2-36" value="" style="endArrow=classic;html=1;rounded=0;fillColor=#f8cecc;strokeColor=#b85450;" edge="1" parent="ahzk-5AAl7I9ZavJ1hb2-1">
          <mxGeometry width="50" height="50" relative="1" as="geometry">
            <mxPoint x="270" y="570" as="sourcePoint" />
            <mxPoint x="330" y="570" as="targetPoint" />
          </mxGeometry>
        </mxCell>
        <mxCell id="ahzk-5AAl7I9ZavJ1hb2-37" value="\(V_{R}\)" style="text;html=1;strokeColor=none;fillColor=none;align=center;verticalAlign=middle;whiteSpace=wrap;rounded=0;" vertex="1" parent="ahzk-5AAl7I9ZavJ1hb2-1">
          <mxGeometry x="455" y="567" width="60" height="30" as="geometry" />
        </mxCell>
        <mxCell id="ahzk-5AAl7I9ZavJ1hb2-38" value="\( \approx&amp;nbsp; 0 A\)" style="text;html=1;strokeColor=none;fillColor=none;align=center;verticalAlign=middle;whiteSpace=wrap;rounded=0;" vertex="1" parent="ahzk-5AAl7I9ZavJ1hb2-1">
          <mxGeometry x="270" y="410" width="60" height="30" as="geometry" />
        </mxCell>
        <mxCell id="ahzk-5AAl7I9ZavJ1hb2-39" value="" style="endArrow=classic;html=1;rounded=0;fillColor=#f8cecc;strokeColor=#b85450;" edge="1" parent="ahzk-5AAl7I9ZavJ1hb2-1">
          <mxGeometry width="50" height="50" relative="1" as="geometry">
            <mxPoint x="270" y="410" as="sourcePoint" />
            <mxPoint x="330" y="410" as="targetPoint" />
          </mxGeometry>
        </mxCell>
        <mxCell id="ahzk-5AAl7I9ZavJ1hb2-40" value="\( \approx&amp;nbsp; 0 V\)" style="text;html=1;strokeColor=none;fillColor=none;align=center;verticalAlign=middle;whiteSpace=wrap;rounded=0;" vertex="1" parent="ahzk-5AAl7I9ZavJ1hb2-1">
          <mxGeometry x="756" y="439" width="60" height="30" as="geometry" />
        </mxCell>
        <mxCell id="ahzk-5AAl7I9ZavJ1hb2-41" value="" style="endArrow=classic;html=1;rounded=0;fillColor=#f8cecc;strokeColor=#b85450;" edge="1" parent="ahzk-5AAl7I9ZavJ1hb2-1">
          <mxGeometry width="50" height="50" relative="1" as="geometry">
            <mxPoint x="806" y="434" as="sourcePoint" />
            <mxPoint x="806" y="474" as="targetPoint" />
          </mxGeometry>
        </mxCell>
        <mxCell id="ahzk-5AAl7I9ZavJ1hb2-42" value="" style="pointerEvents=1;verticalLabelPosition=bottom;shadow=0;dashed=0;align=center;html=1;verticalAlign=top;shape=mxgraph.electrical.signal_sources.signal_ground;" vertex="1" parent="ahzk-5AAl7I9ZavJ1hb2-1">
          <mxGeometry x="860" y="285" width="45" height="30" as="geometry" />
        </mxCell>
        <mxCell id="ahzk-5AAl7I9ZavJ1hb2-43" style="edgeStyle=orthogonalEdgeStyle;rounded=0;orthogonalLoop=1;jettySize=auto;html=1;exitX=1;exitY=0.5;exitDx=0;exitDy=0;entryX=0.5;entryY=0;entryDx=0;entryDy=0;entryPerimeter=0;endArrow=none;endFill=0;" edge="1" parent="ahzk-5AAl7I9ZavJ1hb2-1" source="ahzk-5AAl7I9ZavJ1hb2-26" target="ahzk-5AAl7I9ZavJ1hb2-42">
          <mxGeometry relative="1" as="geometry">
            <Array as="points">
              <mxPoint x="883" y="230" />
            </Array>
          </mxGeometry>
        </mxCell>
        <mxCell id="ahzk-5AAl7I9ZavJ1hb2-44" value="" style="endArrow=classic;html=1;rounded=0;fillColor=#f8cecc;strokeColor=#b85450;" edge="1" parent="ahzk-5AAl7I9ZavJ1hb2-1">
          <mxGeometry width="50" height="50" relative="1" as="geometry">
            <mxPoint x="220" y="180" as="sourcePoint" />
            <mxPoint x="280" y="180" as="targetPoint" />
          </mxGeometry>
        </mxCell>
        <mxCell id="ahzk-5AAl7I9ZavJ1hb2-45" value="" style="endArrow=classic;html=1;rounded=0;fillColor=#f8cecc;strokeColor=#b85450;exitX=1;exitY=1;exitDx=0;exitDy=0;" edge="1" parent="ahzk-5AAl7I9ZavJ1hb2-1">
          <mxGeometry width="50" height="50" relative="1" as="geometry">
            <mxPoint x="455" y="180.28" as="sourcePoint" />
            <mxPoint x="385" y="180" as="targetPoint" />
          </mxGeometry>
        </mxCell>
        <mxCell id="ahzk-5AAl7I9ZavJ1hb2-46" value="" style="endArrow=classic;html=1;rounded=0;fillColor=#f8cecc;strokeColor=#b85450;" edge="1" parent="ahzk-5AAl7I9ZavJ1hb2-1">
          <mxGeometry width="50" height="50" relative="1" as="geometry">
            <mxPoint x="540" y="179.57999999999998" as="sourcePoint" />
            <mxPoint x="600" y="179.57999999999998" as="targetPoint" />
          </mxGeometry>
        </mxCell>
        <mxCell id="ahzk-5AAl7I9ZavJ1hb2-47" value="" style="endArrow=classic;html=1;rounded=0;fillColor=#f8cecc;strokeColor=#b85450;" edge="1" parent="ahzk-5AAl7I9ZavJ1hb2-1">
          <mxGeometry width="50" height="50" relative="1" as="geometry">
            <mxPoint x="700" y="179.57999999999998" as="sourcePoint" />
            <mxPoint x="760" y="179.57999999999998" as="targetPoint" />
          </mxGeometry>
        </mxCell>
        <mxCell id="ahzk-5AAl7I9ZavJ1hb2-48" value="" style="rounded=0;whiteSpace=wrap;html=1;fillStyle=hatch;fillColor=#999999;strokeWidth=2;strokeColor=#999999;" vertex="1" parent="ahzk-5AAl7I9ZavJ1hb2-1">
          <mxGeometry x="340" y="195" width="140" height="75" as="geometry" />
        </mxCell>
        <mxCell id="ahzk-5AAl7I9ZavJ1hb2-49" value="Shaded Cell" style="text;html=1;strokeColor=none;fillColor=none;align=center;verticalAlign=middle;whiteSpace=wrap;rounded=0;" vertex="1" parent="ahzk-5AAl7I9ZavJ1hb2-1">
          <mxGeometry x="370" y="270" width="80" height="30" as="geometry" />
        </mxCell>
      </root>
    </mxGraphModel>
  </diagram>
  <diagram name="shaded-diode" id="gElsvawJBBQ0w5_fp6fm">
    <mxGraphModel dx="1199" dy="819" grid="1" gridSize="10" guides="1" tooltips="1" connect="1" arrows="1" fold="1" page="1" pageScale="1" pageWidth="3300" pageHeight="2339" math="1" shadow="0">
      <root>
        <mxCell id="2jm4OviHbWLZRl9aGDTZ-0" />
        <mxCell id="2jm4OviHbWLZRl9aGDTZ-1" parent="2jm4OviHbWLZRl9aGDTZ-0" />
        <mxCell id="2jm4OviHbWLZRl9aGDTZ-2" style="edgeStyle=orthogonalEdgeStyle;rounded=0;orthogonalLoop=1;jettySize=auto;html=1;exitX=1;exitY=0.5;exitDx=0;exitDy=0;entryX=0;entryY=0.5;entryDx=0;entryDy=0;endArrow=none;endFill=0;" edge="1" parent="2jm4OviHbWLZRl9aGDTZ-1" source="2jm4OviHbWLZRl9aGDTZ-3" target="2jm4OviHbWLZRl9aGDTZ-19">
          <mxGeometry relative="1" as="geometry" />
        </mxCell>
        <mxCell id="2jm4OviHbWLZRl9aGDTZ-3" value="" style="rounded=0;whiteSpace=wrap;html=1;" vertex="1" parent="2jm4OviHbWLZRl9aGDTZ-1">
          <mxGeometry x="190" y="200" width="120" height="60" as="geometry" />
        </mxCell>
        <mxCell id="2jm4OviHbWLZRl9aGDTZ-4" style="edgeStyle=orthogonalEdgeStyle;rounded=0;orthogonalLoop=1;jettySize=auto;html=1;exitX=0;exitY=0.5;exitDx=0;exitDy=0;entryX=0;entryY=0.5;entryDx=0;entryDy=0;endArrow=none;endFill=0;" edge="1" parent="2jm4OviHbWLZRl9aGDTZ-1" source="2jm4OviHbWLZRl9aGDTZ-5" target="2jm4OviHbWLZRl9aGDTZ-7">
          <mxGeometry relative="1" as="geometry">
            <Array as="points">
              <mxPoint x="150" y="230" />
              <mxPoint x="150" y="395" />
            </Array>
          </mxGeometry>
        </mxCell>
        <mxCell id="2jm4OviHbWLZRl9aGDTZ-5" value="" style="triangle;whiteSpace=wrap;html=1;" vertex="1" parent="2jm4OviHbWLZRl9aGDTZ-1">
          <mxGeometry x="190" y="200" width="45" height="60" as="geometry" />
        </mxCell>
        <mxCell id="2jm4OviHbWLZRl9aGDTZ-6" style="edgeStyle=orthogonalEdgeStyle;rounded=0;orthogonalLoop=1;jettySize=auto;html=1;exitX=1;exitY=0.5;exitDx=0;exitDy=0;entryX=0.5;entryY=0;entryDx=0;entryDy=0;endArrow=none;endFill=0;" edge="1" parent="2jm4OviHbWLZRl9aGDTZ-1" source="2jm4OviHbWLZRl9aGDTZ-7" target="2jm4OviHbWLZRl9aGDTZ-8">
          <mxGeometry relative="1" as="geometry" />
        </mxCell>
        <mxCell id="2jm4OviHbWLZRl9aGDTZ-7" value="V" style="verticalLabelPosition=middle;shadow=0;dashed=0;align=center;html=1;verticalAlign=middle;strokeWidth=1;shape=ellipse;aspect=fixed;fontSize=30;" vertex="1" parent="2jm4OviHbWLZRl9aGDTZ-1">
          <mxGeometry x="463" y="373" width="44" height="44" as="geometry" />
        </mxCell>
        <mxCell id="2jm4OviHbWLZRl9aGDTZ-8" value="A" style="verticalLabelPosition=middle;shadow=0;dashed=0;align=center;html=1;verticalAlign=middle;strokeWidth=1;shape=ellipse;aspect=fixed;fontSize=30;" vertex="1" parent="2jm4OviHbWLZRl9aGDTZ-1">
          <mxGeometry x="816" y="430" width="44" height="44" as="geometry" />
        </mxCell>
        <mxCell id="2jm4OviHbWLZRl9aGDTZ-9" style="edgeStyle=orthogonalEdgeStyle;rounded=0;orthogonalLoop=1;jettySize=auto;html=1;exitX=1;exitY=0.5;exitDx=0;exitDy=0;exitPerimeter=0;entryX=0.5;entryY=1;entryDx=0;entryDy=0;endArrow=none;endFill=0;" edge="1" parent="2jm4OviHbWLZRl9aGDTZ-1" source="2jm4OviHbWLZRl9aGDTZ-11" target="2jm4OviHbWLZRl9aGDTZ-8">
          <mxGeometry relative="1" as="geometry" />
        </mxCell>
        <mxCell id="2jm4OviHbWLZRl9aGDTZ-10" style="edgeStyle=orthogonalEdgeStyle;rounded=0;orthogonalLoop=1;jettySize=auto;html=1;exitX=0;exitY=0.5;exitDx=0;exitDy=0;exitPerimeter=0;entryX=0;entryY=0.5;entryDx=0;entryDy=0;endArrow=none;endFill=0;" edge="1" parent="2jm4OviHbWLZRl9aGDTZ-1" source="2jm4OviHbWLZRl9aGDTZ-11" target="2jm4OviHbWLZRl9aGDTZ-7">
          <mxGeometry relative="1" as="geometry">
            <mxPoint x="110" y="410" as="targetPoint" />
            <Array as="points">
              <mxPoint x="430" y="550" />
              <mxPoint x="150" y="550" />
              <mxPoint x="150" y="395" />
            </Array>
          </mxGeometry>
        </mxCell>
        <mxCell id="2jm4OviHbWLZRl9aGDTZ-11" value="" style="pointerEvents=1;verticalLabelPosition=bottom;shadow=0;dashed=0;align=center;html=1;verticalAlign=top;shape=mxgraph.electrical.resistors.resistor_1;" vertex="1" parent="2jm4OviHbWLZRl9aGDTZ-1">
          <mxGeometry x="408" y="533" width="154" height="34" as="geometry" />
        </mxCell>
        <mxCell id="2jm4OviHbWLZRl9aGDTZ-12" value="\(PV_1\)" style="text;html=1;strokeColor=none;fillColor=none;align=center;verticalAlign=middle;whiteSpace=wrap;rounded=0;fontSize=18;" vertex="1" parent="2jm4OviHbWLZRl9aGDTZ-1">
          <mxGeometry x="235" y="215" width="60" height="30" as="geometry" />
        </mxCell>
        <mxCell id="2jm4OviHbWLZRl9aGDTZ-13" value="&lt;blockquote style=&quot;margin: 0 0 0 40px; border: none; padding: 0px;&quot;&gt;&lt;br&gt;&lt;/blockquote&gt;" style="text;html=1;strokeColor=none;fillColor=none;align=center;verticalAlign=middle;whiteSpace=wrap;rounded=0;fontSize=18;" vertex="1" parent="2jm4OviHbWLZRl9aGDTZ-1">
          <mxGeometry x="450" y="585" width="60" height="30" as="geometry" />
        </mxCell>
        <mxCell id="2jm4OviHbWLZRl9aGDTZ-14" value="\(R_{LOAD}\)" style="text;html=1;strokeColor=none;fillColor=none;align=center;verticalAlign=middle;whiteSpace=wrap;rounded=0;fontSize=18;" vertex="1" parent="2jm4OviHbWLZRl9aGDTZ-1">
          <mxGeometry x="455" y="535" width="60" height="30" as="geometry" />
        </mxCell>
        <mxCell id="2jm4OviHbWLZRl9aGDTZ-15" value="Voltmeter" style="text;html=1;strokeColor=none;fillColor=none;align=center;verticalAlign=middle;whiteSpace=wrap;rounded=0;" vertex="1" parent="2jm4OviHbWLZRl9aGDTZ-1">
          <mxGeometry x="455" y="420" width="60" height="30" as="geometry" />
        </mxCell>
        <mxCell id="2jm4OviHbWLZRl9aGDTZ-16" value="Ammeter&amp;nbsp;" style="text;html=1;strokeColor=none;fillColor=none;align=center;verticalAlign=middle;whiteSpace=wrap;rounded=0;" vertex="1" parent="2jm4OviHbWLZRl9aGDTZ-1">
          <mxGeometry x="860" y="437" width="60" height="30" as="geometry" />
        </mxCell>
        <mxCell id="2jm4OviHbWLZRl9aGDTZ-17" style="edgeStyle=orthogonalEdgeStyle;rounded=0;orthogonalLoop=1;jettySize=auto;html=1;exitX=1;exitY=0.5;exitDx=0;exitDy=0;entryX=0;entryY=0.5;entryDx=0;entryDy=0;endArrow=none;endFill=0;" edge="1" parent="2jm4OviHbWLZRl9aGDTZ-1" source="2jm4OviHbWLZRl9aGDTZ-18" target="2jm4OviHbWLZRl9aGDTZ-23">
          <mxGeometry relative="1" as="geometry" />
        </mxCell>
        <mxCell id="2jm4OviHbWLZRl9aGDTZ-18" value="" style="rounded=0;whiteSpace=wrap;html=1;" vertex="1" parent="2jm4OviHbWLZRl9aGDTZ-1">
          <mxGeometry x="350" y="200" width="120" height="60" as="geometry" />
        </mxCell>
        <mxCell id="2jm4OviHbWLZRl9aGDTZ-19" value="" style="triangle;whiteSpace=wrap;html=1;" vertex="1" parent="2jm4OviHbWLZRl9aGDTZ-1">
          <mxGeometry x="350" y="200" width="45" height="60" as="geometry" />
        </mxCell>
        <mxCell id="2jm4OviHbWLZRl9aGDTZ-20" value="\(PV_2\)" style="text;html=1;strokeColor=none;fillColor=none;align=center;verticalAlign=middle;whiteSpace=wrap;rounded=0;fontSize=18;" vertex="1" parent="2jm4OviHbWLZRl9aGDTZ-1">
          <mxGeometry x="395" y="215" width="60" height="30" as="geometry" />
        </mxCell>
        <mxCell id="2jm4OviHbWLZRl9aGDTZ-21" style="edgeStyle=orthogonalEdgeStyle;rounded=0;orthogonalLoop=1;jettySize=auto;html=1;exitX=1;exitY=0.5;exitDx=0;exitDy=0;entryX=0;entryY=0.5;entryDx=0;entryDy=0;endArrow=none;endFill=0;" edge="1" parent="2jm4OviHbWLZRl9aGDTZ-1" source="2jm4OviHbWLZRl9aGDTZ-22" target="2jm4OviHbWLZRl9aGDTZ-27">
          <mxGeometry relative="1" as="geometry" />
        </mxCell>
        <mxCell id="2jm4OviHbWLZRl9aGDTZ-22" value="" style="rounded=0;whiteSpace=wrap;html=1;" vertex="1" parent="2jm4OviHbWLZRl9aGDTZ-1">
          <mxGeometry x="510" y="200" width="120" height="60" as="geometry" />
        </mxCell>
        <mxCell id="2jm4OviHbWLZRl9aGDTZ-23" value="" style="triangle;whiteSpace=wrap;html=1;" vertex="1" parent="2jm4OviHbWLZRl9aGDTZ-1">
          <mxGeometry x="510" y="200" width="45" height="60" as="geometry" />
        </mxCell>
        <mxCell id="2jm4OviHbWLZRl9aGDTZ-24" value="\(PV_3\)" style="text;html=1;strokeColor=none;fillColor=none;align=center;verticalAlign=middle;whiteSpace=wrap;rounded=0;fontSize=18;" vertex="1" parent="2jm4OviHbWLZRl9aGDTZ-1">
          <mxGeometry x="555" y="215" width="60" height="30" as="geometry" />
        </mxCell>
        <mxCell id="2jm4OviHbWLZRl9aGDTZ-25" style="edgeStyle=orthogonalEdgeStyle;rounded=0;orthogonalLoop=1;jettySize=auto;html=1;exitX=1;exitY=0.5;exitDx=0;exitDy=0;entryX=0.5;entryY=0;entryDx=0;entryDy=0;endArrow=none;endFill=0;" edge="1" parent="2jm4OviHbWLZRl9aGDTZ-1" source="2jm4OviHbWLZRl9aGDTZ-26" target="2jm4OviHbWLZRl9aGDTZ-8">
          <mxGeometry relative="1" as="geometry" />
        </mxCell>
        <mxCell id="2jm4OviHbWLZRl9aGDTZ-26" value="" style="rounded=0;whiteSpace=wrap;html=1;" vertex="1" parent="2jm4OviHbWLZRl9aGDTZ-1">
          <mxGeometry x="670" y="200" width="120" height="60" as="geometry" />
        </mxCell>
        <mxCell id="2jm4OviHbWLZRl9aGDTZ-27" value="" style="triangle;whiteSpace=wrap;html=1;" vertex="1" parent="2jm4OviHbWLZRl9aGDTZ-1">
          <mxGeometry x="670" y="200" width="45" height="60" as="geometry" />
        </mxCell>
        <mxCell id="2jm4OviHbWLZRl9aGDTZ-28" value="\(PV_4\)" style="text;html=1;strokeColor=none;fillColor=none;align=center;verticalAlign=middle;whiteSpace=wrap;rounded=0;fontSize=18;" vertex="1" parent="2jm4OviHbWLZRl9aGDTZ-1">
          <mxGeometry x="715" y="215" width="60" height="30" as="geometry" />
        </mxCell>
        <mxCell id="2jm4OviHbWLZRl9aGDTZ-29" value="\(V_1\)" style="text;html=1;strokeColor=none;fillColor=none;align=center;verticalAlign=middle;whiteSpace=wrap;rounded=0;" vertex="1" parent="2jm4OviHbWLZRl9aGDTZ-1">
          <mxGeometry x="220" y="150" width="60" height="30" as="geometry" />
        </mxCell>
        <mxCell id="2jm4OviHbWLZRl9aGDTZ-30" value="\(V_2\)" style="text;html=1;strokeColor=none;fillColor=none;align=center;verticalAlign=middle;whiteSpace=wrap;rounded=0;" vertex="1" parent="2jm4OviHbWLZRl9aGDTZ-1">
          <mxGeometry x="390" y="150" width="60" height="30" as="geometry" />
        </mxCell>
        <mxCell id="2jm4OviHbWLZRl9aGDTZ-31" value="\(V_3\)" style="text;html=1;strokeColor=none;fillColor=none;align=center;verticalAlign=middle;whiteSpace=wrap;rounded=0;" vertex="1" parent="2jm4OviHbWLZRl9aGDTZ-1">
          <mxGeometry x="540" y="150" width="60" height="30" as="geometry" />
        </mxCell>
        <mxCell id="2jm4OviHbWLZRl9aGDTZ-32" value="\(V_4\)" style="text;html=1;strokeColor=none;fillColor=none;align=center;verticalAlign=middle;whiteSpace=wrap;rounded=0;" vertex="1" parent="2jm4OviHbWLZRl9aGDTZ-1">
          <mxGeometry x="700" y="150" width="60" height="30" as="geometry" />
        </mxCell>
        <mxCell id="2jm4OviHbWLZRl9aGDTZ-33" value="\(I\)" style="text;html=1;strokeColor=none;fillColor=none;align=center;verticalAlign=middle;whiteSpace=wrap;rounded=0;" vertex="1" parent="2jm4OviHbWLZRl9aGDTZ-1">
          <mxGeometry x="90" y="320" width="60" height="30" as="geometry" />
        </mxCell>
        <mxCell id="2jm4OviHbWLZRl9aGDTZ-34" value="" style="endArrow=classic;html=1;rounded=0;fillColor=#f8cecc;strokeColor=#b85450;" edge="1" parent="2jm4OviHbWLZRl9aGDTZ-1">
          <mxGeometry width="50" height="50" relative="1" as="geometry">
            <mxPoint x="130" y="310" as="sourcePoint" />
            <mxPoint x="130" y="360" as="targetPoint" />
          </mxGeometry>
        </mxCell>
        <mxCell id="2jm4OviHbWLZRl9aGDTZ-35" value="\(I\)" style="text;html=1;strokeColor=none;fillColor=none;align=center;verticalAlign=middle;whiteSpace=wrap;rounded=0;" vertex="1" parent="2jm4OviHbWLZRl9aGDTZ-1">
          <mxGeometry x="270" y="570" width="60" height="30" as="geometry" />
        </mxCell>
        <mxCell id="2jm4OviHbWLZRl9aGDTZ-36" value="" style="endArrow=classic;html=1;rounded=0;fillColor=#f8cecc;strokeColor=#b85450;" edge="1" parent="2jm4OviHbWLZRl9aGDTZ-1">
          <mxGeometry width="50" height="50" relative="1" as="geometry">
            <mxPoint x="270" y="570" as="sourcePoint" />
            <mxPoint x="330" y="570" as="targetPoint" />
          </mxGeometry>
        </mxCell>
        <mxCell id="2jm4OviHbWLZRl9aGDTZ-37" value="\(V_{R}\)" style="text;html=1;strokeColor=none;fillColor=none;align=center;verticalAlign=middle;whiteSpace=wrap;rounded=0;" vertex="1" parent="2jm4OviHbWLZRl9aGDTZ-1">
          <mxGeometry x="455" y="567" width="60" height="30" as="geometry" />
        </mxCell>
        <mxCell id="2jm4OviHbWLZRl9aGDTZ-38" value="\( \approx&amp;nbsp; 0 A\)" style="text;html=1;strokeColor=none;fillColor=none;align=center;verticalAlign=middle;whiteSpace=wrap;rounded=0;" vertex="1" parent="2jm4OviHbWLZRl9aGDTZ-1">
          <mxGeometry x="270" y="410" width="60" height="30" as="geometry" />
        </mxCell>
        <mxCell id="2jm4OviHbWLZRl9aGDTZ-39" value="" style="endArrow=classic;html=1;rounded=0;fillColor=#f8cecc;strokeColor=#b85450;" edge="1" parent="2jm4OviHbWLZRl9aGDTZ-1">
          <mxGeometry width="50" height="50" relative="1" as="geometry">
            <mxPoint x="270" y="410" as="sourcePoint" />
            <mxPoint x="330" y="410" as="targetPoint" />
          </mxGeometry>
        </mxCell>
        <mxCell id="2jm4OviHbWLZRl9aGDTZ-40" value="\( \approx&amp;nbsp; 0 V\)" style="text;html=1;strokeColor=none;fillColor=none;align=center;verticalAlign=middle;whiteSpace=wrap;rounded=0;" vertex="1" parent="2jm4OviHbWLZRl9aGDTZ-1">
          <mxGeometry x="756" y="439" width="60" height="30" as="geometry" />
        </mxCell>
        <mxCell id="2jm4OviHbWLZRl9aGDTZ-41" value="" style="endArrow=classic;html=1;rounded=0;fillColor=#f8cecc;strokeColor=#b85450;" edge="1" parent="2jm4OviHbWLZRl9aGDTZ-1">
          <mxGeometry width="50" height="50" relative="1" as="geometry">
            <mxPoint x="806" y="434" as="sourcePoint" />
            <mxPoint x="806" y="474" as="targetPoint" />
          </mxGeometry>
        </mxCell>
        <mxCell id="2jm4OviHbWLZRl9aGDTZ-42" value="" style="pointerEvents=1;verticalLabelPosition=bottom;shadow=0;dashed=0;align=center;html=1;verticalAlign=top;shape=mxgraph.electrical.signal_sources.signal_ground;" vertex="1" parent="2jm4OviHbWLZRl9aGDTZ-1">
          <mxGeometry x="860" y="285" width="45" height="30" as="geometry" />
        </mxCell>
        <mxCell id="2jm4OviHbWLZRl9aGDTZ-43" style="edgeStyle=orthogonalEdgeStyle;rounded=0;orthogonalLoop=1;jettySize=auto;html=1;exitX=1;exitY=0.5;exitDx=0;exitDy=0;entryX=0.5;entryY=0;entryDx=0;entryDy=0;entryPerimeter=0;endArrow=none;endFill=0;" edge="1" parent="2jm4OviHbWLZRl9aGDTZ-1" source="2jm4OviHbWLZRl9aGDTZ-26" target="2jm4OviHbWLZRl9aGDTZ-42">
          <mxGeometry relative="1" as="geometry">
            <Array as="points">
              <mxPoint x="883" y="230" />
            </Array>
          </mxGeometry>
        </mxCell>
        <mxCell id="2jm4OviHbWLZRl9aGDTZ-44" value="" style="endArrow=classic;html=1;rounded=0;fillColor=#f8cecc;strokeColor=#b85450;" edge="1" parent="2jm4OviHbWLZRl9aGDTZ-1">
          <mxGeometry width="50" height="50" relative="1" as="geometry">
            <mxPoint x="220" y="180" as="sourcePoint" />
            <mxPoint x="280" y="180" as="targetPoint" />
          </mxGeometry>
        </mxCell>
        <mxCell id="2jm4OviHbWLZRl9aGDTZ-45" value="" style="endArrow=classic;html=1;rounded=0;fillColor=#f8cecc;strokeColor=#b85450;exitX=1;exitY=1;exitDx=0;exitDy=0;" edge="1" parent="2jm4OviHbWLZRl9aGDTZ-1">
          <mxGeometry width="50" height="50" relative="1" as="geometry">
            <mxPoint x="455" y="180.28" as="sourcePoint" />
            <mxPoint x="385" y="180" as="targetPoint" />
          </mxGeometry>
        </mxCell>
        <mxCell id="2jm4OviHbWLZRl9aGDTZ-46" value="" style="endArrow=classic;html=1;rounded=0;fillColor=#f8cecc;strokeColor=#b85450;" edge="1" parent="2jm4OviHbWLZRl9aGDTZ-1">
          <mxGeometry width="50" height="50" relative="1" as="geometry">
            <mxPoint x="540" y="179.57999999999998" as="sourcePoint" />
            <mxPoint x="600" y="179.57999999999998" as="targetPoint" />
          </mxGeometry>
        </mxCell>
        <mxCell id="2jm4OviHbWLZRl9aGDTZ-47" value="" style="endArrow=classic;html=1;rounded=0;fillColor=#f8cecc;strokeColor=#b85450;" edge="1" parent="2jm4OviHbWLZRl9aGDTZ-1">
          <mxGeometry width="50" height="50" relative="1" as="geometry">
            <mxPoint x="700" y="179.57999999999998" as="sourcePoint" />
            <mxPoint x="760" y="179.57999999999998" as="targetPoint" />
          </mxGeometry>
        </mxCell>
        <mxCell id="2jm4OviHbWLZRl9aGDTZ-48" value="" style="rounded=0;whiteSpace=wrap;html=1;fillStyle=hatch;fillColor=#999999;strokeWidth=2;strokeColor=#999999;" vertex="1" parent="2jm4OviHbWLZRl9aGDTZ-1">
          <mxGeometry x="340" y="195" width="140" height="75" as="geometry" />
        </mxCell>
        <mxCell id="2jm4OviHbWLZRl9aGDTZ-49" value="Shaded Cell" style="text;html=1;strokeColor=none;fillColor=none;align=center;verticalAlign=middle;whiteSpace=wrap;rounded=0;" vertex="1" parent="2jm4OviHbWLZRl9aGDTZ-1">
          <mxGeometry x="370" y="270" width="80" height="30" as="geometry" />
        </mxCell>
        <mxCell id="2jm4OviHbWLZRl9aGDTZ-50" style="edgeStyle=orthogonalEdgeStyle;rounded=0;orthogonalLoop=1;jettySize=auto;html=1;exitX=0;exitY=0.5;exitDx=0;exitDy=0;exitPerimeter=0;endArrow=none;endFill=0;" edge="1" parent="2jm4OviHbWLZRl9aGDTZ-1" source="2jm4OviHbWLZRl9aGDTZ-52">
          <mxGeometry relative="1" as="geometry">
            <mxPoint x="490" y="230" as="targetPoint" />
          </mxGeometry>
        </mxCell>
        <mxCell id="2jm4OviHbWLZRl9aGDTZ-51" style="edgeStyle=orthogonalEdgeStyle;rounded=0;orthogonalLoop=1;jettySize=auto;html=1;exitX=1;exitY=0.5;exitDx=0;exitDy=0;exitPerimeter=0;endArrow=none;endFill=0;" edge="1" parent="2jm4OviHbWLZRl9aGDTZ-1" source="2jm4OviHbWLZRl9aGDTZ-52">
          <mxGeometry relative="1" as="geometry">
            <mxPoint x="330" y="230" as="targetPoint" />
          </mxGeometry>
        </mxCell>
        <mxCell id="2jm4OviHbWLZRl9aGDTZ-52" value="" style="pointerEvents=1;fillColor=strokeColor;verticalLabelPosition=bottom;shadow=0;dashed=0;align=center;html=1;verticalAlign=top;shape=mxgraph.electrical.diodes.diode;rotation=-180;" vertex="1" parent="2jm4OviHbWLZRl9aGDTZ-1">
          <mxGeometry x="385" y="110" width="50" height="30" as="geometry" />
        </mxCell>
        <mxCell id="2jm4OviHbWLZRl9aGDTZ-53" value="bypass diode" style="text;html=1;strokeColor=none;fillColor=none;align=center;verticalAlign=middle;whiteSpace=wrap;rounded=0;" vertex="1" parent="2jm4OviHbWLZRl9aGDTZ-1">
          <mxGeometry x="370" y="80" width="80" height="30" as="geometry" />
        </mxCell>
        <mxCell id="2jm4OviHbWLZRl9aGDTZ-54" style="edgeStyle=orthogonalEdgeStyle;rounded=0;orthogonalLoop=1;jettySize=auto;html=1;exitX=1;exitY=0.5;exitDx=0;exitDy=0;endArrow=oval;endFill=1;" edge="1" parent="2jm4OviHbWLZRl9aGDTZ-1" source="2jm4OviHbWLZRl9aGDTZ-56">
          <mxGeometry relative="1" as="geometry">
            <mxPoint x="490" y="230" as="targetPoint" />
          </mxGeometry>
        </mxCell>
        <mxCell id="2jm4OviHbWLZRl9aGDTZ-55" style="edgeStyle=orthogonalEdgeStyle;rounded=0;orthogonalLoop=1;jettySize=auto;html=1;exitX=0;exitY=0.5;exitDx=0;exitDy=0;endArrow=oval;endFill=1;" edge="1" parent="2jm4OviHbWLZRl9aGDTZ-1" source="2jm4OviHbWLZRl9aGDTZ-56">
          <mxGeometry relative="1" as="geometry">
            <mxPoint x="330" y="230" as="targetPoint" />
          </mxGeometry>
        </mxCell>
        <mxCell id="2jm4OviHbWLZRl9aGDTZ-56" value="V" style="verticalLabelPosition=middle;shadow=0;dashed=0;align=center;html=1;verticalAlign=middle;strokeWidth=1;shape=ellipse;aspect=fixed;fontSize=30;" vertex="1" parent="2jm4OviHbWLZRl9aGDTZ-1">
          <mxGeometry x="388" y="306" width="44" height="44" as="geometry" />
        </mxCell>
        <mxCell id="2jm4OviHbWLZRl9aGDTZ-57" value="Voltmeter" style="text;html=1;strokeColor=none;fillColor=none;align=center;verticalAlign=middle;whiteSpace=wrap;rounded=0;" vertex="1" parent="2jm4OviHbWLZRl9aGDTZ-1">
          <mxGeometry x="380" y="350" width="60" height="30" as="geometry" />
        </mxCell>
      </root>
    </mxGraphModel>
  </diagram>
</mxfile>
